<svg width="50" height="50" viewBox="0 0 50 50" fill="none" xmlns="http://www.w3.org/2000/svg">
<path d="M15.6667 25.7025C15.6667 25.7025 19.1667 29.6029 25 29.6029C30.8333 29.6029 34.3333 25.7025 34.3333 25.7025M32.3333 12.7012H32.36M17.6667 12.7012H17.6933M11.6667 40.0039V46.0768C11.6667 47.4624 11.6667 48.1551 11.9579 48.511C12.2113 48.8204 12.5954 49.0004 13.0014 49C13.4683 48.9995 14.0231 48.5667 15.1327 47.7012L21.4939 42.7389C22.7934 41.7252 23.4431 41.2184 24.1666 40.858C24.8085 40.5382 25.4918 40.3045 26.1979 40.1632C26.9938 40.0039 27.8259 40.0039 29.49 40.0039H36.2C40.6804 40.0039 42.9206 40.0039 44.6319 39.1537C46.1372 38.4058 47.3611 37.2124 48.1281 35.7446C49 34.0759 49 31.8915 49 27.5227V13.4813C49 9.1124 49 6.92798 48.1281 5.2593C47.3611 3.79149 46.1372 2.59812 44.6319 1.85023C42.9206 1 40.6804 1 36.2 1H13.8C9.31958 1 7.07937 1 5.36808 1.85023C3.86278 2.59812 2.63893 3.79149 1.87195 5.2593C1 6.92798 1 9.1124 1 13.4812V29.6029C1 32.021 1 33.2301 1.27259 34.2221C2.01233 36.9141 4.16871 39.0168 6.92945 39.7381C7.94678 40.0039 9.18674 40.0039 11.6667 40.0039ZM33.6667 12.7012C33.6667 13.4192 33.0697 14.0013 32.3333 14.0013C31.597 14.0013 31 13.4192 31 12.7012C31 11.9831 31.597 11.401 32.3333 11.401C33.0697 11.401 33.6667 11.9831 33.6667 12.7012ZM19 12.7012C19 13.4192 18.403 14.0013 17.6667 14.0013C16.9303 14.0013 16.3333 13.4192 16.3333 12.7012C16.3333 11.9831 16.9303 11.401 17.6667 11.401C18.403 11.401 19 11.9831 19 12.7012Z" stroke="white" stroke-width="2" stroke-linecap="round" stroke-linejoin="round"/>
</svg>
