<svg width="54" height="54" viewBox="0 0 54 54" fill="none" xmlns="http://www.w3.org/2000/svg">
<path d="M27 18V4.5L22.5 9" stroke="white" stroke-width="1.5" stroke-linecap="round" stroke-linejoin="round"/>
<path d="M27 4.5L31.5 9" stroke="white" stroke-width="1.5" stroke-linecap="round" stroke-linejoin="round"/>
<path d="M15.75 27C6.75 27 6.75 31.0275 6.75 36V38.25C6.75 44.46 6.75 49.5 18 49.5H36C45 49.5 47.25 44.46 47.25 38.25V36C47.25 31.0275 47.25 27 38.25 27C36 27 35.37 27.4725 34.2 28.35L31.905 30.78C29.25 33.615 24.75 33.615 22.0725 30.78L19.8 28.35C18.63 27.4725 18 27 15.75 27Z" stroke="white" stroke-width="1.5" stroke-miterlimit="10" stroke-linecap="round" stroke-linejoin="round"/>
<path d="M11.25 27.0001V22.5001C11.25 17.9776 11.25 14.2426 18 13.5901" stroke="white" stroke-width="1.5" stroke-miterlimit="10" stroke-linecap="round" stroke-linejoin="round"/>
<path d="M42.75 27.0001V22.5001C42.75 17.9776 42.75 14.2426 36 13.5901" stroke="white" stroke-width="1.5" stroke-miterlimit="10" stroke-linecap="round" stroke-linejoin="round"/>
</svg>
