<svg width="47" height="48" viewBox="0 0 47 48" fill="none" xmlns="http://www.w3.org/2000/svg">
<path d="M29.125 21.7H12.25M17.875 30.9H12.25M34.75 12.5H12.25M46 12.04V35.96C46 39.8244 46 41.7565 45.0804 43.2325C44.2714 44.5309 42.9807 45.5864 41.393 46.2479C39.5882 47 37.2254 47 32.5 47H14.5C9.77456 47 7.41184 47 5.60696 46.2479C4.01934 45.5864 2.72856 44.5309 1.91963 43.2325C1 41.7565 1 39.8244 1 35.96V12.04C1 8.17564 1 6.24346 1.91963 4.76747C2.72856 3.46915 4.01934 2.41358 5.60696 1.75206C7.41184 1 9.77456 1 14.5 1H32.5C37.2254 1 39.5882 1 41.393 1.75206C42.9807 2.41358 44.2714 3.46915 45.0804 4.76747C46 6.24346 46 8.17564 46 12.04Z" stroke="white" stroke-width="2" stroke-linecap="round" stroke-linejoin="round"/>
</svg>
