<svg width="47" height="47" viewBox="0 0 47 47" fill="none" xmlns="http://www.w3.org/2000/svg">
<path d="M23.5 23.5001C28.9078 23.5001 33.2917 19.1162 33.2917 13.7084C33.2917 8.30063 28.9078 3.91675 23.5 3.91675C18.0923 3.91675 13.7084 8.30063 13.7084 13.7084C13.7084 19.1162 18.0923 23.5001 23.5 23.5001Z" stroke="#FDFEFF" stroke-width="1.5" stroke-linecap="round" stroke-linejoin="round"/>
<path d="M37.6196 30.8243L30.687 37.7569C30.4129 38.0311 30.1583 38.5402 30.0996 38.9123L29.7275 41.556C29.5904 42.5155 30.2562 43.1814 31.2158 43.0443L33.8595 42.6722C34.2316 42.6135 34.7604 42.3589 35.015 42.0847L41.9475 35.1523C43.142 33.9577 43.71 32.5672 41.9475 30.8047C40.2045 29.0618 38.8142 29.6297 37.6196 30.8243Z" stroke="#FDFEFF" stroke-width="1.5" stroke-miterlimit="10" stroke-linecap="round" stroke-linejoin="round"/>
<path d="M36.6208 31.823C37.2083 33.938 38.8533 35.5829 40.9683 36.1704" stroke="#FDFEFF" stroke-width="1.5" stroke-miterlimit="10" stroke-linecap="round" stroke-linejoin="round"/>
<path d="M6.67786 43.0833C6.67786 35.5046 14.2175 29.375 23.5 29.375C25.5367 29.375 27.4949 29.6687 29.3162 30.2171" stroke="#FDFEFF" stroke-width="1.5" stroke-linecap="round" stroke-linejoin="round"/>
</svg>
