<svg width="54" height="54" viewBox="0 0 54 54" fill="none" xmlns="http://www.w3.org/2000/svg">
<path d="M34.8975 6.36749H19.1025C13.5 6.36749 12.2625 9.15749 11.5425 12.5775L9 24.75H45L42.4575 12.5775C41.7375 9.15749 40.5 6.36749 34.8975 6.36749Z" stroke="white" stroke-width="1.5" stroke-linecap="round" stroke-linejoin="round"/>
<path d="M49.4775 44.595C49.725 47.2275 47.61 49.5 44.91 49.5H40.68C38.25 49.5 37.9125 48.465 37.485 47.1825L37.035 45.8325C36.405 43.9875 36 42.75 32.76 42.75H21.24C18 42.75 17.5275 44.145 16.965 45.8325L16.515 47.1825C16.0875 48.465 15.75 49.5 13.32 49.5H9.09002C6.39002 49.5 4.27502 47.2275 4.52252 44.595L5.78252 30.8925C6.09752 27.5175 6.75002 24.75 12.645 24.75H41.355C47.25 24.75 47.9025 27.5175 48.2175 30.8925L49.4775 44.595Z" stroke="white" stroke-width="1.5" stroke-linecap="round" stroke-linejoin="round"/>
<path d="M9 18H6.75" stroke="white" stroke-width="1.5" stroke-linecap="round" stroke-linejoin="round"/>
<path d="M47.25 18H45" stroke="white" stroke-width="1.5" stroke-linecap="round" stroke-linejoin="round"/>
<path d="M27 6.75V11.25" stroke="white" stroke-width="1.5" stroke-linecap="round" stroke-linejoin="round"/>
<path d="M23.625 11.25H30.375" stroke="white" stroke-width="1.5" stroke-linecap="round" stroke-linejoin="round"/>
<path d="M13.5 33.75H20.25" stroke="white" stroke-width="1.5" stroke-linecap="round" stroke-linejoin="round"/>
<path d="M33.75 33.75H40.5" stroke="white" stroke-width="1.5" stroke-linecap="round" stroke-linejoin="round"/>
</svg>
